<?xml version="1.0" encoding="iso-8859-1"?>

<!DOCTYPE svg PUBLIC "-//W3C//DTD SVG 1.1//EN" "http://www.w3.org/Graphics/SVG/1.1/DTD/svg11.dtd">
<!-- Uploaded to: SVG Repo, www.svgrepo.com, Generator: SVG Repo Mixer Tools -->
<svg height="800px" width="800px" version="1.1" id="_x34_" xmlns="http://www.w3.org/2000/svg" xmlns:xlink="http://www.w3.org/1999/xlink" 
	 viewBox="0 0 512 512"  xml:space="preserve">
<g>
	<g>
		<path style="fill:#CCCCCC;" d="M230.711,329.985c-13.512,13.914-26.222,26.958-37.727,38.731c-2.877,2.943-5.686,5.82-8.428,8.629
			c-0.401,0.402-0.803,0.803-1.137,1.204h-0.066c-5.084,5.218-9.9,10.101-14.315,14.65c-21.339,21.807-35.319,35.921-37.593,38.195
			c-4.817,4.817-13.111-1.271-21.473-10.569c-3.144-3.479-6.288-7.426-9.298-11.371c-1.404-1.94-2.876-3.947-4.214-5.82
			c-7.692-10.903-13.445-20.669-13.445-20.669l37.861-37.861l14.516-14.515l1.07-1.07c0,0-0.067,0-25.954-44.484
			c24.081,16.121,50.571,28.161,78.465,36.189C202.55,325.102,216.53,328.046,230.711,329.985z"/>
		<path style="fill:#F0F0F0;" d="M508.382,30.041c-0.201,0.602-0.468,1.204-0.736,1.873
			c-15.185,31.974-167.699,185.492-276.934,298.072c-14.181-1.939-28.161-4.883-41.741-8.762
			c-27.894-8.028-54.383-20.068-78.465-36.189c-7.76-13.379-17.86-30.77-31.038-53.38C331.786-15.446,442.359-12.637,485.036,9.304
			c3.813,1.94,7.024,4.013,9.766,6.087c1.873,1.405,3.478,2.811,4.883,4.148c0.468,0.401,0.937,0.869,1.338,1.271l1.271,1.271
			C506.642,26.629,508.382,30.041,508.382,30.041z"/>
		<polygon style="fill:#CC7B78;" points="184.021,379.152 169.505,393.667 51.173,512 24.683,485.443 0,460.76 3.813,457.014 
			118.266,342.495 132.781,327.979 183.352,378.549 183.419,378.549 		"/>
		<polygon style="fill:#2D2D2D;" points="169.505,393.667 51.173,512 24.683,485.443 0,460.76 3.813,457.014 118.266,342.495 
			142.949,367.178 169.037,393.199 		"/>
		<circle style="fill:#F0F0F0;" cx="109.593" cy="407.23" r="13.692"/>
		<circle style="fill:#F0F0F0;" cx="61.185" cy="455.638" r="13.692"/>
	</g>
	<path style="opacity:0.06;fill:#040000;" d="M494.778,15.393L24.7,485.471l26.505,26.505l118.285-118.285l14.522-14.522
		l-0.634-0.634c13.906-14.218,29.92-30.637,47.301-48.538c111.63-114.973,268.3-272.593,277.714-299.946
		C508.393,30.053,504.603,22.784,494.778,15.393z"/>
</g>
</svg>